<mxfile host="app.diagrams.net" modified="2024-04-29T09:00:57.897Z" agent="Mozilla/5.0 (X11; Ubuntu; Linux x86_64; rv:122.0) Gecko/20100101 Firefox/122.0" version="24.3.1" etag="b0xKpSAHfeOaNVGrzfTZ" type="github">
  <diagram name="Page-1" id="UVRlzeQaLypEHQXQWoon">
    <mxGraphModel>
      <root>
        <mxCell id="0" />
        <mxCell id="1" parent="0" />
      </root>
    </mxGraphModel>
  </diagram>
</mxfile>
